
<svg version="1.1" id="Layer_1" xmlns="http://www.w3.org/2000/svg" xmlns:xlink="http://www.w3.org/1999/xlink" x="0px" y="0px"
	 width="62px" height="97px" viewBox="0 0 670.5 1052.9" enable-background="new 0 0 670.5 1052.9" xml:space="preserve">
<g>
	<path fill="#18cfab" d="M243.4,969.6c-12.9-3.9-22.1-13.1-30.7-22.6c-13.2-14.6-24.3-30.8-34.5-47.5
		c-13.2-21.5-24.8-43.9-35.9-66.6c-10.6-21.6-19.9-43.7-29.9-65.5c-8.4-18.4-17-36.7-25.8-55c-8-16.6-16.4-33.1-25-49.4
		c-12-22.9-25.5-45-39-67c-4.1-6.7-8.3-13.4-8.5-21.7c-0.5-3.6-0.4-7.2,0-10.9c1.2-18.8,8.1-35.2,21.3-48.5
		c13-13.1,29.6-16.1,47.1-14.2c24.8,2.7,42.9,16.7,58.3,35.4c10.3,12.4,21.3,24.2,32,36.2c6.5,7.3,12.9,14.6,19.3,21.9
		c1.9-0.5,1.4-1.9,1.4-3c0-112.6,0-225.2-0.1-337.8c1.1-1.6,0-3.4,0.8-5c1.3-8.5,3.9-16.6,8.1-24.2c8.4-15.4,21.6-23.5,38.6-25.8
		c24.7-3.3,45.4,4.4,62.7,22.3c11.6,12.1,15,26.6,15,42.5c0,60,0,119.9,0,179.9c0,1.9-0.6,3.9,1,6.6c11.3-13.5,22.3-27.2,41.7-27.6
		c2-0.8,4.2,0.3,6.1-0.7c3.5,0,7.1,0,10.6,0c2,1,4.2,0,6.1,0.7c9.3,1.6,18.3,4.2,26.2,9.9c10.8,7.8,16.3,19,19.7,31.3
		c2.1,7.4,3.3,15.1,5,22.6c1.6,6.8,4.4,9.5,10,10c4,0.4,9-3.2,11.3-8.4c1.4-3.2,2.6-6.4,4-9.5c6.3-14.1,17.1-21,32.5-19.6
		c11.1,1,21.9,4,31.1,10.6c11.3,8.1,14.2,19.7,12.7,32.8c-0.5,4.8-1.3,9.5-1.6,14.3c-0.3,5.5,2.7,9.8,7.2,11.2
		c4.9,1.5,9.8-0.2,12.9-4.9c5.5-8.4,12-15.8,20.6-20.8c13.2-7.7,27-7.7,40.9-1.8c24.7,10.4,36.9,29.9,40.6,55.7
		c0.5,1.5,0.3,3,0.3,4.5c0,81.3,0,162.6,0,243.9c0,1.5,0.2,3-0.3,4.5c-0.1,3.3-0.2,6.7-0.2,10c-1.2,2.6,0.1,5.4-0.8,8
		c-0.1,1.9-0.2,3.9-0.3,5.8c-1,1.6,0,3.5-0.7,5.2c-3.1,22.1-6.5,44.1-14.2,65.1c-6.4,17.4-14.3,33.8-27.6,47.2
		c-12.3,12.4-27.2,18.7-44.6,19.6c-2.5,0.1-5,0.1-7.5,0.1c-83.9,0-167.9,0-251.8,0c-2.2,0-4.3,0.1-6.5,0.2
		c-14.5,0.7-29,0.2-43.4,0.3C254.3,969.9,248.9,970.3,243.4,969.6z"/>
	<path fill="#18cfab" d="M264.2,11.2c23.4,3.3,46,9.3,67.1,20c24,12.2,45.2,28.1,63,48.6c19,21.8,32.8,46.4,41.5,73.9
		c3.6,11.4,5.7,23.1,7.7,34.8c0.8,1.6-0.3,3.5,0.8,5c0.1,1.7,0.2,3.3,0.2,5c0.9,3.6-0.5,7.4,0.8,11c0,3.3,0,6.6,0,9.9
		c-1.3,3.6,0.1,7.4-0.8,11c-0.1,1.7-0.1,3.3-0.2,5c-1.1,1.5,0,3.4-0.8,5c-3.3,21.9-9.1,43-18.8,62.9c-8.4,17.2-19,32.9-31.8,47.3
		c-14.2,16.1-30.8,29.1-49,40.2c-1.4,0.8-2.6,2.1-4.9,1.9c0-1.8,0-3.6,0-5.4c0-41.1,0.1-82.3-0.1-123.4c0-11.2-1.1-22.4-5.5-32.8
		c-11.8-28.1-33.6-44.6-62.7-51.4c-19.8-4.7-39.6-2.8-57.8,6.7c-21.6,11.2-32.4,30.5-37.6,53.5c-0.8,3.4-1.3,6.8-1.1,10.3
		c-0.8,1.7-0.4,3.6-0.4,5.4c0,48.8,0,97.6-0.1,146.5c0,1.8,0.6,3.7-0.6,5.3c-10.5-2.8-20.2-7.4-29.7-12.6
		c-11.2-6.1-21.8-13.1-31.7-21.3c-8.6-7.2-16.9-14.7-24.2-23.3c-6.6-7.7-12.9-15.5-18.4-23.8C58.8,310.9,51,294,45.5,276.2
		c-4.2-13.7-7.5-27.5-8.4-41.8c-0.8-2,0.3-4.2-0.7-6.1c0-9.2,0-18.4,0-27.6c1-2,0-4.1,0.7-6.1C46.3,94.4,127,16.2,228.4,10.2
		c8-0.5,15.9-0.4,23.9-0.1c2.3,0.1,4.7,0.2,7,0.3C260.8,11.5,262.6,10.5,264.2,11.2z"/>
	<path fill="#18cfab" d="M587.9,1038.9H247.1c-7.2,0-13.1-5.9-13.1-13.1v-15.3c0-7.2,5.9-13.1,13.1-13.1h340.8
		c7.2,0,13.1,5.9,13.1,13.1v15.3C601,1033.1,595.1,1038.9,587.9,1038.9z"/>
</g>
</svg>
