<svg version="1.1" id="Layer_1" xmlns="http://www.w3.org/2000/svg" xmlns:xlink="http://www.w3.org/1999/xlink" x="0px" y="0px"
	 width="101.5px" height="80px" viewBox="-284.6 204.4 101.5 80" enable-background="new -284.6 204.4 101.5 80"
	 xml:space="preserve">
<g>
	<path fill="#FFFFFF" d="M-237.6,204.4c-4.2,6.4-8.3,13-13,20.3c-4.8-7.4-9.1-13.9-13.2-20.3C-255.1,204.4-246.4,204.4-237.6,204.4z
		"/>
	<path fill="#FFFFFF" d="M-203.7,204.4c-4.2,6.4-8.2,12.8-13.1,20.3c-4.7-7.2-9-13.8-13.1-20.3
		C-221.2,204.4-212.5,204.4-203.7,204.4z"/>
	<path fill="#FFFFFF" d="M-284.6,229.2c10.9,0,20.3-0.1,29.7,0.1c0.7,0,2.5,0.1,2.5,0.1s0.8,2.3,1,2.8c4.7,17.2,9.2,34.3,12.8,52
		C-253.6,266.5-268.5,248.4-284.6,229.2z"/>
	<path fill="#FFFFFF" d="M-183.1,229.2c-16.1,19.3-46.8,55-46.8,55l15.2-54.8C-214.7,229.5-189.4,229.2-183.1,229.2z"/>
	<path fill="#FFFFFF" d="M-248.5,229.5c9.9,0,19.2,0,29.4,0c-4.8,18.1-14.5,54.9-14.5,54.9S-243.7,247.8-248.5,229.5z"/>
	<path fill="#FFFFFF" d="M-254.1,225.6c-10.5,0-19.8,0-30.2,0c5.9-6.9,11.1-13,17-19.8C-262.9,212.4-258.7,218.6-254.1,225.6z"/>
	<path fill="#FFFFFF" d="M-200.4,205.8c5.8,6.8,11,12.8,16.9,19.7c-10.4,0-19.7,0-30.1,0C-209,218.8-204.9,212.7-200.4,205.8z"/>
	<path fill="#FFFFFF" d="M-247.5,225.6c4.7-6.9,9-13.1,13.6-19.8c4.6,6.8,8.9,12.9,13.7,19.8C-229.6,225.6-237.9,225.6-247.5,225.6z
		"/>
</g>
</svg>
