<svg version="1.1" id="Layer_1" xmlns="http://www.w3.org/2000/svg" xmlns:xlink="http://www.w3.org/1999/xlink" x="0px" y="0px"
	 width="104.1px" height="80px" viewBox="-1234.1 464.7 104.1 80" enable-background="new -1234.1 464.7 104.1 80"
	 xml:space="preserve">
<g>
	<path fill="#FFFFFF" d="M-1234.1,484.7c0.2,0,0.5,0,0.7,0c13.1,0,26.2,0,39.4,0c0.2,0,0.5,0,0.7,0c0,0.3,0,0.5,0,0.7
		c0,19.6,0,39.2,0,58.8c0,0.2,0,0.4,0,0.6c-13.6,0-27.2,0-40.7,0C-1234.1,524.7-1234.1,504.7-1234.1,484.7z M-1228.2,490.5
		c0,14.8,0,29.5,0,44.2c9.7,0,19.3,0,28.9,0c0-14.8,0-29.5,0-44.2C-1208.9,490.5-1218.6,490.5-1228.2,490.5z M-1214.8,539.8
		c0,1.1,0.9,1.9,1.9,1.9c1.1,0,2-0.9,2-1.9c0-1.1-0.9-1.9-2-1.9C-1214,537.9-1214.8,538.7-1214.8,539.8z"/>
	<path fill="#FFFFFF" d="M-1142.8,464.7c0,10.4,0,20.9,0,31.3c0,0.1,0,0.2,0,0.3c-1.9,0-3.8,0-5.7,0c0-8.6,0-17.3,0-26
		c-21.8,0-43.6,0-65.4,0c0,3.9,0,7.8,0,11.7c-1.9,0-3.8,0-5.8,0c0-5.8,0-11.6,0-17.4C-1194.1,464.7-1168.5,464.7-1142.8,464.7z"/>
	<path fill="#FFFFFF" d="M-1130,543.8c-3,0-5.9,0-8.9,0c-5.9,0-11.9,0-17.8,0c-0.2,0-0.4,0-0.7,0c0-15.1,0-30.1,0-45.2
		c0.2,0,0.4,0,0.7,0c8.7,0,17.3,0,26,0c0.2,0,0.5,0,0.7,0C-1130,513.6-1130,528.7-1130,543.8z M-1134.5,536.5c0-10.4,0-20.7,0-31
		c-6.2,0-12.4,0-18.6,0c0,10.3,0,20.7,0,31C-1146.8,536.5-1140.7,536.5-1134.5,536.5z M-1143.4,538.8c-0.9,0-1.6,0.7-1.6,1.5
		c0,0.8,0.7,1.5,1.6,1.6c0.9,0,1.6-0.7,1.6-1.6C-1141.8,539.4-1142.5,538.8-1143.4,538.8z M-1147,503.2c2.6,0,5.2,0,7.8,0
		c0-0.2,0-0.4,0-0.6c-2.6,0-5.2,0-7.8,0C-1147,502.9-1147,503-1147,503.2z M-1143.2,501.8c0.4,0,0.7-0.3,0.7-0.6
		c0-0.4-0.2-0.6-0.6-0.7c-0.4,0-0.7,0.3-0.7,0.6C-1143.7,501.5-1143.5,501.7-1143.2,501.8z"/>
	<path fill="#FFFFFF" d="M-1190.7,521.7c6.8,0,13.5,0,20.3,0c0-0.5,0-1,0-1.5c-6.8,0-13.5,0-20.3,0c0-1.1,0-2.2,0-3.4
		c10.1,0,20.1,0,30.2,0c0,2.6,0,5.3,0,7.9c-10.1,0-20.1,0-30.2,0C-1190.7,523.8-1190.7,522.8-1190.7,521.7z"/>
	<path fill="#FFFFFF" d="M-1160.4,508.9c0,1.9,0,3.7,0,5.6c-10.1,0-20.1,0-30.2,0c0-1.8,0-3.7,0-5.6
		C-1180.6,508.9-1170.5,508.9-1160.4,508.9z"/>
</g>
</svg>
