<svg version="1.1" id="Layer_1" xmlns="http://www.w3.org/2000/svg" xmlns:xlink="http://www.w3.org/1999/xlink" x="0px" y="0px"
	 width="57.5px" height="92px" viewBox="-599 326.8 57.5 92" enable-background="new -599 326.8 57.5 92" xml:space="preserve">
<g>
	<path fill="#18CEAA" d="M-577.1,418.8c-0.2-0.2-0.4-0.2-0.6-0.3c-2.2-0.8-3.6-2.4-4-4.7c-0.1-0.5,0-0.8,0.6-0.8
		c7.2,0,14.4,0,21.6,0c0.7,0,0.7,0.3,0.7,0.8c-0.3,2.4-2.2,4.3-4.5,4.8c-0.1,0-0.3,0-0.4,0.1C-568.2,418.8-572.7,418.8-577.1,418.8z
		"/>
	<path fill="#2AD2B1" d="M-599,355.9c0.2,0.3,0.2,0.6,0,0.9C-599,356.5-599,356.2-599,355.9z"/>
	<path fill="#29D2B1" d="M-541.5,356.8c-0.2-0.3-0.2-0.6,0-0.9C-541.5,356.2-541.5,356.5-541.5,356.8z"/>
	<path fill="#7BE2CE" d="M-599,357.4c0.1,0.1,0.1,0.3,0.1,0.4c0,0.1-0.1,0.1-0.1,0C-599,357.6-599,357.5-599,357.4z"/>
	<path fill="#7BE3CE" d="M-541.7,357.8c0-0.1,0-0.3,0.1-0.4c0,0.1,0,0.3,0,0.4C-541.6,357.9-541.6,357.9-541.7,357.8z"/>
	<path fill="#8BE6D4" d="M-572.1,326.9c-0.1,0-0.2,0-0.3-0.1c0.1,0,0.2,0,0.3,0C-572,326.8-572,326.9-572.1,326.9z"/>
	<path fill="#6EE0CA" d="M-572.1,326.9c0,0,0-0.1,0-0.1c0.1,0,0.2,0,0.3,0C-571.9,326.9-572,326.9-572.1,326.9z"/>
	<path fill="#6EE0CA" d="M-568.4,326.9c-0.1,0-0.2,0-0.3-0.1c0.1,0,0.2,0,0.3,0C-568.3,326.8-568.3,326.9-568.4,326.9z"/>
	<path fill="#8BE6D4" d="M-568.4,326.9c0,0,0-0.1,0-0.1c0.1,0,0.2,0,0.3,0C-568.2,326.9-568.3,326.9-568.4,326.9z"/>
	<path fill="#83E5D2" d="M-599,353.5c0.1,0.1,0.1,0.2,0,0.3C-599,353.7-599,353.6-599,353.5z"/>
	<path fill="#83E5D2" d="M-541.5,353.8c-0.1-0.1-0.1-0.2,0-0.3C-541.5,353.6-541.5,353.7-541.5,353.8z"/>
	<path fill="#9FEBDB" d="M-599,357.8c0,0,0.1,0,0.1,0c0,0.1,0,0.2-0.1,0.3C-599,357.9-599,357.9-599,357.8z"/>
	<path fill="#9FEBDB" d="M-541.7,357.8c0,0,0.1,0,0.1,0c0,0.1,0,0.2,0,0.3C-541.7,358-541.7,357.9-541.7,357.8z"/>
	<path fill="#18CEAA" d="M-541.5,353c-0.1-0.1-0.1-0.2-0.1-0.4c-0.1-1.2-0.1-2.4-0.3-3.6c-1.2-5.3-3.7-9.9-7.5-13.8
		c-2.7-2.8-5.8-4.9-9.4-6.4c-2.3-1-4.6-1.8-7.1-1.9c-0.6,0-1.2,0-1.8-0.1c-0.1,0-0.3,0-0.4,0c-0.1,0.1-0.2,0.1-0.3,0.1
		c-0.1,0-0.2,0-0.3-0.1c-1.1,0-2.1,0-3.2,0c-0.1,0.1-0.2,0.1-0.3,0.1c-0.1,0-0.2,0-0.3-0.1c-0.1,0-0.3,0-0.4,0
		c-0.1,0.1-0.3,0.1-0.4,0.1c-1.2,0.1-2.4,0.1-3.6,0.3c-5.3,1.2-9.9,3.8-13.8,7.6c-2.7,2.6-4.8,5.7-6.3,9.2c-0.9,2-1.6,4.1-1.8,6.4
		c-0.1,0.8,0,1.7-0.2,2.5c0,0.2,0,0.4,0,0.7c0.1,0.1,0.1,0.2,0,0.3c0,0.7,0,1.4,0,2.1c0.1,0.3,0.1,0.6,0,0.9c0,0.2,0,0.4,0,0.5
		c0.1,0.1,0.1,0.2,0.1,0.4c0,0.1,0,0.2-0.1,0.3c0,0.2,0,0.4,0,0.5c0.1,0.1,0.1,0.2,0.1,0.2c0.1,1.2,0.1,2.3,0.3,3.5
		c0.5,2.1,1.2,4.2,2.2,6.1c1.2,2.6,2.7,5,4.1,7.5c2.4,4.5,3.8,9.3,4.3,14.4c0.1,1.4,1.1,2.4,2.4,2.8c0.5,0.1,1.1,0.1,1.6,0.1
		c9.2,0,18.4,0,27.6,0c0.3,0,0.6,0,0.9,0c1.7-0.1,3-1.3,3.2-2.8c0.1-0.7,0.2-1.5,0.3-2.2c0.6-4.6,2.1-8.9,4.4-12.9
		c1.3-2.4,2.8-4.7,3.9-7.2c1-2.2,1.9-4.5,2.1-7c0.1-0.8,0-1.7,0.2-2.5c0-0.2,0-0.4,0-0.5c-0.1-0.1-0.1-0.2-0.1-0.3
		c0-0.1,0-0.3,0.1-0.4c0-0.2,0-0.4,0-0.5c-0.1-0.3-0.1-0.6,0-0.9c0-0.7,0-1.4,0-2.1c-0.1-0.1-0.1-0.2,0-0.3
		C-541.5,353.4-541.5,353.2-541.5,353z M-558.6,364.4c-0.4,2.4-1.1,4.7-2.4,6.8c-1.9,3-4.7,4.5-8.2,4.5c-1,0-1,0-1,1
		c0,3.3,0,6.6,0,9.9c0,0.5-0.1,0.6-0.6,0.6c-1.5,0-3.1,0-4.6,0c-0.4,0-0.5-0.1-0.5-0.5c1.2-7.1,2.6-14.2,5.8-20.8
		c0.4-0.7,0.8-1.4,1.2-2.1c0.4-0.7,0.9-1.3,1.4-1.9c-2.9,0.9-4.9,2.8-6.4,5.3c-1.5,2.5-2,5.3-2,8.2c-0.2,0.1-0.2,0-0.3-0.1
		c-2-2.9-3.3-6.1-3.6-9.7c-0.3-4.4,1.4-8.1,4.6-11.1c2.3-2.1,5-3.6,7.9-4.9c2.6-1.1,5.3-1.9,8.1-2.6c0.4-0.1,0.5-0.1,0.6,0.3
		C-558,353-557.6,358.7-558.6,364.4z"/>
	<path fill="#18CEAA" d="M-570.3,404.4c4.8,0,9.5,0,14.3,0c2,0,3.4,1.8,2.8,3.7c-0.3,1.1-1.1,1.8-2.3,2c-0.3,0-0.6,0.1-0.9,0.1
		c-9.3,0-18.6,0-27.9,0c-0.4,0-0.9,0-1.3-0.2c-1.3-0.4-2.1-1.8-1.9-3.1c0.2-1.4,1.4-2.5,2.8-2.5c3,0,6,0,9,0
		C-573.9,404.4-572.1,404.4-570.3,404.4z"/>
	<path fill="#18CEAA" d="M-570.3,401.5c-4.8,0-9.5,0-14.3,0c-2.3,0-3.6-2.4-2.5-4.3c0.5-0.8,1.2-1.3,2.1-1.4c0.3,0,0.7,0,1,0
		c9.2,0,18.3,0,27.5,0c0.5,0,1,0,1.5,0.2c1.3,0.4,2.1,1.8,2,3.1c-0.2,1.5-1.4,2.5-2.8,2.5C-560.7,401.5-565.5,401.5-570.3,401.5z"/>
</g>
</svg>
