<svg version="1.1" id="Layer_1" xmlns="http://www.w3.org/2000/svg" xmlns:xlink="http://www.w3.org/1999/xlink" x="0px" y="0px"
	 width="42.4px" height="30px" viewBox="0 0 42.4 30" enable-background="new 0 0 42.4 30" xml:space="preserve">
	<path fill="#18CFAB" d="M20.6,5.7c0-1.9,0-3.8,0-5.7C8-0.8-3.8,12.1,1.1,24.1c3,7.3,13.4,8,17.3,1.2c3.9-6.6-1.4-15.1-9-14.6
		C12.2,7.4,16,6.4,20.6,5.7z"/>
	<path fill="#18CFAB" d="M42.4,5.7c0-1.9,0-3.8,0-5.7c-12.6-0.9-24.4,12-19.5,24c3,7.3,13.4,8,17.3,1.2c3.9-6.6-1.4-15.1-9-14.6
		C33.9,7.4,37.7,6.4,42.4,5.7z"/>
</svg>
